<?xml version="1.0" encoding="UTF-8" standalone="no"?>
<!-- Generator: Adobe Illustrator 19.0.0, SVG Export Plug-In . SVG Version: 6.00 Build 0)  -->

<svg
   xmlns:dc="http://purl.org/dc/elements/1.1/"
   xmlns:cc="http://creativecommons.org/ns#"
   xmlns:rdf="http://www.w3.org/1999/02/22-rdf-syntax-ns#"
   xmlns:svg="http://www.w3.org/2000/svg"
   xmlns="http://www.w3.org/2000/svg"
   xmlns:sodipodi="http://sodipodi.sourceforge.net/DTD/sodipodi-0.dtd"
   xmlns:inkscape="http://www.inkscape.org/namespaces/inkscape"
   version="1.1"
   id="Layer_1"
   x="0px"
   y="0px"
   viewBox="0 0 630 630"
   xml:space="preserve"
   sodipodi:docname="construction.svg"
   width="630"
   height="630"
   inkscape:version="0.92.2 5c3e80d, 2017-08-06"><metadata
     id="metadata71"><rdf:RDF><cc:Work
         rdf:about=""><dc:format>image/svg+xml</dc:format><dc:type
           rdf:resource="http://purl.org/dc/dcmitype/StillImage" /><dc:title></dc:title></cc:Work></rdf:RDF></metadata><defs
     id="defs69"><linearGradient
       id="P1_1_"
       gradientUnits="userSpaceOnUse"
       x1="23.715799"
       y1="-152.43069"
       x2="23.715799"
       y2="37.3438"
       gradientTransform="matrix(1.2524,0,0,-1.2524,98.7981,56.0994)"><stop
         offset="0.0056"
         style="stop-color:#ED0000"
         id="stop988" /><stop
         offset="0.5449"
         style="stop-color:#8D0000"
         id="stop990" /><stop
         offset="1"
         style="stop-color:#BD0000"
         id="stop992" /></linearGradient><linearGradient
       id="P2_1_"
       gradientUnits="userSpaceOnUse"
       x1="23.7148"
       y1="-152.41409"
       x2="23.7148"
       y2="37.365601"
       gradientTransform="matrix(1.2524,0,0,-1.2524,98.7981,56.0994)"><stop
         offset="0.0056"
         style="stop-color:#FF4242"
         id="stop996" /><stop
         offset="0.573"
         style="stop-color:#FF9494"
         id="stop998" /><stop
         offset="1"
         style="stop-color:#FFDCDC"
         id="stop1000" /></linearGradient><linearGradient
       id="P3_1_"
       gradientUnits="userSpaceOnUse"
       x1="23.716299"
       y1="-148.5874"
       x2="23.716299"
       y2="33.503399"
       gradientTransform="matrix(1.2524,0,0,-1.2524,98.7981,56.0994)"><stop
         offset="0"
         style="stop-color:#FFFFFF"
         id="stop1004" /><stop
         offset="0.5"
         style="stop-color:#FF0000"
         id="stop1006" /><stop
         offset="1"
         style="stop-color:#FFC9C9"
         id="stop1008" /></linearGradient><radialGradient
       id="P6_1_"
       cx="-13.7617"
       cy="-108.6973"
       r="57.021999"
       gradientTransform="matrix(1.7767,0,0,-1.7767,152.9529,-64.9587)"
       gradientUnits="userSpaceOnUse"><stop
         offset="0.6011"
         style="stop-color:#FFFFFF"
         id="stop1014" /><stop
         offset="0.8764"
         style="stop-color:#EAEAF0"
         id="stop1016" /><stop
         offset="0.9142"
         style="stop-color:#E6E6ED"
         id="stop1018" /><stop
         offset="0.95"
         style="stop-color:#DBDBE5"
         id="stop1020" /><stop
         offset="0.9849"
         style="stop-color:#C8C8D7"
         id="stop1022" /><stop
         offset="1"
         style="stop-color:#BDBDCF"
         id="stop1024" /></radialGradient><filter
       style="color-interpolation-filters:sRGB"
       inkscape:label="Color Shift"
       id="filter6394"><feColorMatrix
         type="hueRotate"
         values="196"
         result="color1"
         id="feColorMatrix6390" /><feColorMatrix
         type="saturate"
         values="0.94"
         result="fbSourceGraphic"
         id="feColorMatrix6392" /><feColorMatrix
         result="fbSourceGraphicAlpha"
         in="fbSourceGraphic"
         values="0 0 0 -1 0 0 0 0 -1 0 0 0 0 -1 0 0 0 0 1 0"
         id="feColorMatrix12796" /><feColorMatrix
         id="feColorMatrix12798"
         type="hueRotate"
         values="14"
         result="color1"
         in="fbSourceGraphic" /><feColorMatrix
         id="feColorMatrix12800"
         type="saturate"
         values="0.227273"
         result="color2" /></filter><filter
       style="color-interpolation-filters:sRGB"
       inkscape:label="Color Shift"
       id="filter6400"><feColorMatrix
         type="hueRotate"
         values="196"
         result="color1"
         id="feColorMatrix6396" /><feColorMatrix
         type="saturate"
         values="0.94"
         result="fbSourceGraphic"
         id="feColorMatrix6398" /><feColorMatrix
         result="fbSourceGraphicAlpha"
         in="fbSourceGraphic"
         values="0 0 0 -1 0 0 0 0 -1 0 0 0 0 -1 0 0 0 0 1 0"
         id="feColorMatrix12802" /><feColorMatrix
         id="feColorMatrix12804"
         type="hueRotate"
         values="14"
         result="color1"
         in="fbSourceGraphic" /><feColorMatrix
         id="feColorMatrix12806"
         type="saturate"
         values="0.227273"
         result="color2" /></filter><filter
       style="color-interpolation-filters:sRGB"
       inkscape:label="Color Shift"
       id="filter6406"><feColorMatrix
         type="hueRotate"
         values="196"
         result="color1"
         id="feColorMatrix6402" /><feColorMatrix
         type="saturate"
         values="0.94"
         result="fbSourceGraphic"
         id="feColorMatrix6404" /><feColorMatrix
         result="fbSourceGraphicAlpha"
         in="fbSourceGraphic"
         values="0 0 0 -1 0 0 0 0 -1 0 0 0 0 -1 0 0 0 0 1 0"
         id="feColorMatrix12790" /><feColorMatrix
         id="feColorMatrix12792"
         type="hueRotate"
         values="14"
         result="color1"
         in="fbSourceGraphic" /><feColorMatrix
         id="feColorMatrix12794"
         type="saturate"
         values="0.227273"
         result="color2" /></filter><filter
       style="color-interpolation-filters:sRGB"
       inkscape:label="Color Shift"
       id="filter6412"><feColorMatrix
         type="hueRotate"
         values="196"
         result="color1"
         id="feColorMatrix6408" /><feColorMatrix
         type="saturate"
         values="0.94"
         result="fbSourceGraphic"
         id="feColorMatrix6410" /><feColorMatrix
         result="fbSourceGraphicAlpha"
         in="fbSourceGraphic"
         values="0 0 0 -1 0 0 0 0 -1 0 0 0 0 -1 0 0 0 0 1 0"
         id="feColorMatrix12784" /><feColorMatrix
         id="feColorMatrix12786"
         type="hueRotate"
         values="14"
         result="color1"
         in="fbSourceGraphic" /><feColorMatrix
         id="feColorMatrix12788"
         type="saturate"
         values="0.227273"
         result="color2" /></filter><filter
       style="color-interpolation-filters:sRGB"
       inkscape:label="Color Shift"
       id="filter6418"><feColorMatrix
         type="hueRotate"
         values="196"
         result="color1"
         id="feColorMatrix6414" /><feColorMatrix
         type="saturate"
         values="0.94"
         result="fbSourceGraphic"
         id="feColorMatrix6416" /><feColorMatrix
         result="fbSourceGraphicAlpha"
         in="fbSourceGraphic"
         values="0 0 0 -1 0 0 0 0 -1 0 0 0 0 -1 0 0 0 0 1 0"
         id="feColorMatrix12778" /><feColorMatrix
         id="feColorMatrix12780"
         type="hueRotate"
         values="14"
         result="color1"
         in="fbSourceGraphic" /><feColorMatrix
         id="feColorMatrix12782"
         type="saturate"
         values="0.227273"
         result="color2" /></filter><filter
       style="color-interpolation-filters:sRGB"
       inkscape:label="Color Shift"
       id="filter6424"><feColorMatrix
         type="hueRotate"
         values="196"
         result="color1"
         id="feColorMatrix6420" /><feColorMatrix
         type="saturate"
         values="0.94"
         result="fbSourceGraphic"
         id="feColorMatrix6422" /><feColorMatrix
         result="fbSourceGraphicAlpha"
         in="fbSourceGraphic"
         values="0 0 0 -1 0 0 0 0 -1 0 0 0 0 -1 0 0 0 0 1 0"
         id="feColorMatrix12772" /><feColorMatrix
         id="feColorMatrix12774"
         type="hueRotate"
         values="14"
         result="color1"
         in="fbSourceGraphic" /><feColorMatrix
         id="feColorMatrix12776"
         type="saturate"
         values="0.227273"
         result="color2" /></filter><filter
       style="color-interpolation-filters:sRGB"
       inkscape:label="Color Shift"
       id="filter6430"><feColorMatrix
         type="hueRotate"
         values="196"
         result="color1"
         id="feColorMatrix6426" /><feColorMatrix
         type="saturate"
         values="0.94"
         result="fbSourceGraphic"
         id="feColorMatrix6428" /><feColorMatrix
         result="fbSourceGraphicAlpha"
         in="fbSourceGraphic"
         values="0 0 0 -1 0 0 0 0 -1 0 0 0 0 -1 0 0 0 0 1 0"
         id="feColorMatrix12838" /><feColorMatrix
         id="feColorMatrix12840"
         type="hueRotate"
         values="14"
         result="color1"
         in="fbSourceGraphic" /><feColorMatrix
         id="feColorMatrix12842"
         type="saturate"
         values="0.227273"
         result="color2" /></filter><filter
       style="color-interpolation-filters:sRGB"
       inkscape:label="Color Shift"
       id="filter6436"><feColorMatrix
         type="hueRotate"
         values="196"
         result="color1"
         id="feColorMatrix6432" /><feColorMatrix
         type="saturate"
         values="0.94"
         result="fbSourceGraphic"
         id="feColorMatrix6434" /><feColorMatrix
         result="fbSourceGraphicAlpha"
         in="fbSourceGraphic"
         values="0 0 0 -1 0 0 0 0 -1 0 0 0 0 -1 0 0 0 0 1 0"
         id="feColorMatrix12832" /><feColorMatrix
         id="feColorMatrix12834"
         type="hueRotate"
         values="14"
         result="color1"
         in="fbSourceGraphic" /><feColorMatrix
         id="feColorMatrix12836"
         type="saturate"
         values="0.227273"
         result="color2" /></filter><filter
       style="color-interpolation-filters:sRGB"
       inkscape:label="Color Shift"
       id="filter6442"><feColorMatrix
         type="hueRotate"
         values="196"
         result="color1"
         id="feColorMatrix6438" /><feColorMatrix
         type="saturate"
         values="0.94"
         result="fbSourceGraphic"
         id="feColorMatrix6440" /><feColorMatrix
         result="fbSourceGraphicAlpha"
         in="fbSourceGraphic"
         values="0 0 0 -1 0 0 0 0 -1 0 0 0 0 -1 0 0 0 0 1 0"
         id="feColorMatrix12808" /><feColorMatrix
         id="feColorMatrix12810"
         type="hueRotate"
         values="14"
         result="color1"
         in="fbSourceGraphic" /><feColorMatrix
         id="feColorMatrix12812"
         type="saturate"
         values="0.227273"
         result="color2" /></filter><filter
       style="color-interpolation-filters:sRGB"
       inkscape:label="Color Shift"
       id="filter6448"><feColorMatrix
         type="hueRotate"
         values="196"
         result="color1"
         id="feColorMatrix6444" /><feColorMatrix
         type="saturate"
         values="0.94"
         result="fbSourceGraphic"
         id="feColorMatrix6446" /><feColorMatrix
         result="fbSourceGraphicAlpha"
         in="fbSourceGraphic"
         values="0 0 0 -1 0 0 0 0 -1 0 0 0 0 -1 0 0 0 0 1 0"
         id="feColorMatrix12820" /><feColorMatrix
         id="feColorMatrix12822"
         type="hueRotate"
         values="14"
         result="color1"
         in="fbSourceGraphic" /><feColorMatrix
         id="feColorMatrix12824"
         type="saturate"
         values="0.227273"
         result="color2" /></filter><filter
       style="color-interpolation-filters:sRGB"
       inkscape:label="Color Shift"
       id="filter6454"><feColorMatrix
         type="hueRotate"
         values="196"
         result="color1"
         id="feColorMatrix6450" /><feColorMatrix
         type="saturate"
         values="0.94"
         result="fbSourceGraphic"
         id="feColorMatrix6452" /><feColorMatrix
         result="fbSourceGraphicAlpha"
         in="fbSourceGraphic"
         values="0 0 0 -1 0 0 0 0 -1 0 0 0 0 -1 0 0 0 0 1 0"
         id="feColorMatrix12826" /><feColorMatrix
         id="feColorMatrix12828"
         type="hueRotate"
         values="14"
         result="color1"
         in="fbSourceGraphic" /><feColorMatrix
         id="feColorMatrix12830"
         type="saturate"
         values="0.227273"
         result="color2" /></filter><filter
       style="color-interpolation-filters:sRGB"
       inkscape:label="Color Shift"
       id="filter6460"><feColorMatrix
         type="hueRotate"
         values="196"
         result="color1"
         id="feColorMatrix6456" /><feColorMatrix
         type="saturate"
         values="0.94"
         result="fbSourceGraphic"
         id="feColorMatrix6458" /><feColorMatrix
         result="fbSourceGraphicAlpha"
         in="fbSourceGraphic"
         values="0 0 0 -1 0 0 0 0 -1 0 0 0 0 -1 0 0 0 0 1 0"
         id="feColorMatrix12814" /><feColorMatrix
         id="feColorMatrix12816"
         type="hueRotate"
         values="14"
         result="color1"
         in="fbSourceGraphic" /><feColorMatrix
         id="feColorMatrix12818"
         type="saturate"
         values="0.227273"
         result="color2" /></filter><filter
       style="color-interpolation-filters:sRGB"
       inkscape:label="Color Shift"
       id="filter6472"><feColorMatrix
         type="hueRotate"
         values="196"
         result="color1"
         id="feColorMatrix6468" /><feColorMatrix
         type="saturate"
         values="0.94"
         result="color2"
         id="feColorMatrix6470" /></filter><filter
       style="color-interpolation-filters:sRGB"
       inkscape:label="Color Shift"
       id="filter6478"><feColorMatrix
         type="hueRotate"
         values="196"
         result="color1"
         id="feColorMatrix6474" /><feColorMatrix
         type="saturate"
         values="0.94"
         result="color2"
         id="feColorMatrix6476" /></filter><filter
       style="color-interpolation-filters:sRGB"
       inkscape:label="Color Shift"
       id="filter6484"><feColorMatrix
         type="hueRotate"
         values="196"
         result="color1"
         id="feColorMatrix6480" /><feColorMatrix
         type="saturate"
         values="0.94"
         result="color2"
         id="feColorMatrix6482" /></filter></defs><sodipodi:namedview
     pagecolor="#ffffff"
     bordercolor="#666666"
     borderopacity="1"
     objecttolerance="10"
     gridtolerance="10"
     guidetolerance="10"
     inkscape:pageopacity="0"
     inkscape:pageshadow="2"
     inkscape:window-width="1920"
     inkscape:window-height="1016"
     id="namedview67"
     showgrid="false"
     inkscape:zoom="1"
     inkscape:cx="305.02063"
     inkscape:cy="313.81353"
     inkscape:window-x="1920"
     inkscape:window-y="27"
     inkscape:window-maximized="1"
     inkscape:current-layer="g1045"
     inkscape:measure-start="272.59,289.383"
     inkscape:measure-end="242.98,300.432"
     fit-margin-top="0"
     fit-margin-left="0"
     fit-margin-right="0"
     fit-margin-bottom="0" /><g
     id="g36"
     transform="translate(-151.00269,313.09238)" /><g
     id="g38"
     transform="translate(-151.00269,313.09238)" /><g
     id="g40"
     transform="translate(-151.00269,313.09238)" /><g
     id="g42"
     transform="translate(-151.00269,313.09238)" /><g
     id="g44"
     transform="translate(-151.00269,313.09238)" /><g
     id="g46"
     transform="translate(-151.00269,313.09238)" /><g
     id="g48"
     transform="translate(-151.00269,313.09238)" /><g
     id="g50"
     transform="translate(-151.00269,313.09238)" /><g
     id="g52"
     transform="translate(-151.00269,313.09238)" /><g
     id="g54"
     transform="translate(-151.00269,313.09238)" /><g
     id="g56"
     transform="translate(-151.00269,313.09238)" /><g
     id="g58"
     transform="translate(-151.00269,313.09238)" /><g
     id="g60"
     transform="translate(-151.00269,313.09238)" /><g
     id="g62"
     transform="translate(-151.00269,313.09238)" /><g
     id="g64"
     transform="translate(-151.00269,313.09238)" /><g
     inkscape:groupmode="layer"
     id="layer2"
     inkscape:label="Layer 1"
     transform="translate(-151.00269,313.09238)"><g
       id="g14"
       transform="rotate(61.455537,474.495,238.80396)"><path
         style="fill:#7f7c79"
         d="m 295.82111,445.98859 51.01833,0.17539 L 348.69,176.552 h -52.966 z"
         id="path10"
         inkscape:connector-curvature="0"
         sodipodi:nodetypes="ccccc" /></g><g
       id="g8"
       transform="rotate(61.455537,468.48219,236.64377)"
       style="filter:url(#filter6472)"><path
         style="fill:#565656"
         d="m 292.75299,432.83888 h -35.31 c -5.297,0 -8.828,-3.531 -8.828,-8.828 0,-5.297 3.531,-8.828 8.828,-8.828 h 35.31 c 5.297,0 8.828,3.531 8.828,8.828 0,5.297 -3.531,8.828 -8.828,8.828"
         id="path2"
         inkscape:connector-curvature="0" /><path
         style="fill:#565656"
         d="m 382.39157,432.03651 h -35.31 c -5.297,0 -8.828,-3.531 -8.828,-8.828 0,-5.297 3.531,-8.828 8.828,-8.828 h 35.31 c 5.297,0 8.828,3.531 8.828,8.828 0,5.297 -3.531,8.828 -8.828,8.828"
         id="path4"
         inkscape:connector-curvature="0" /><path
         style="fill:#565656"
         d="m 357.517,176.552 h -70.621 l -8.828,-35.31 h 88.276 z"
         id="path6"
         inkscape:connector-curvature="0" /></g><g
       id="g24"
       transform="rotate(61.455537,444.72403,219.43307)"><path
         style="fill:#565656"
         d="m 366.345,247.172 c 0,0 -0.883,0 0,0 l -89.159,-8.828 c -4.414,-0.883 -8.828,-4.414 -7.945,-9.71 0.883,-4.414 4.414,-8.828 9.71,-7.945 l 88.276,8.828 c 4.414,0.883 8.828,4.414 7.945,9.71 -0.882,4.414 -4.413,7.945 -8.827,7.945"
         id="path16"
         inkscape:connector-curvature="0" /><path
         style="fill:#565656"
         d="m 366.345,282.483 h -0.883 l -88.276,-8.828 c -4.414,-0.883 -7.945,-4.414 -7.945,-9.71 0.883,-4.414 4.414,-7.945 9.71,-7.945 l 88.276,8.828 c 4.414,0.883 8.828,4.414 7.945,9.71 -0.882,4.414 -4.413,7.945 -8.827,7.945"
         id="path18"
         inkscape:connector-curvature="0" /><path
         style="fill:#565656"
         d="m 366.345,317.793 h -0.883 l -88.276,-8.828 c -4.414,-0.883 -7.945,-4.414 -7.945,-9.71 0.883,-4.414 4.414,-7.945 9.71,-7.945 l 88.276,8.828 c 4.414,0.883 8.828,4.414 7.945,9.71 -0.882,4.414 -4.413,7.945 -8.827,7.945"
         id="path20"
         inkscape:connector-curvature="0" /><path
         style="fill:#565656"
         d="m 366.345,353.103 h -0.883 l -88.276,-8.828 c -4.414,-0.883 -7.945,-4.414 -7.945,-9.71 0.883,-4.414 4.414,-7.945 9.71,-7.945 l 88.276,8.828 c 4.414,0.883 8.828,4.414 7.945,9.71 -0.882,4.414 -4.413,7.945 -8.827,7.945"
         id="path22"
         inkscape:connector-curvature="0" /></g><path
       id="SVGCleanerId_0"
       style="fill:#514439"
       d="m 700.18449,-248.22498 c -21.09092,-38.77288 -68.98142,-52.91827 -107.7543,-31.82734 l -248.14622,134.98184 c -38.77287,21.09093 -52.49633,69.757094 -31.82734,107.754304 l 29.5272,54.28185 c 22.77819,41.87467 55.99116,77.06804 96.33173,101.350256 l 14.15021,9.38641 15.50897,-8.43628 -75.50502,-138.805966 c -11.81079,-21.71257 -3.67776,-49.25014 18.03568,-61.06141 L 611.34815,-189.85193 c 21.71256,-11.81078 48.05302,-4.03061 59.8638,17.68195 l 29.52721,54.28185 -23.2639,12.65465 42.18185,77.545754 22.48823,-12.23272 c 18.86625,-48.44923 15.82824,-102.066964 -9.05865,-147.818224 z"
       inkscape:connector-curvature="0" /><g
       id="g28"
       transform="rotate(61.455537,639.63348,328.03102)"
       style="filter:url(#filter6484)"><path
         id="SVGCleanerId_0_1_"
         style="fill:#514439"
         d="M 163.31,0 C 119.172,0 83.862,35.31 83.862,79.448 v 282.483 c 0,44.138 36.193,79.448 79.448,79.448 h 61.793 c 47.669,0 94.455,-12.359 135.062,-36.193 l 15.007,-7.945 V 379.586 H 217.159 c -24.717,0 -45.021,-20.303 -45.021,-45.021 V 105.931 c 0,-24.717 19.421,-44.138 44.138,-44.138 h 61.793 v 26.483 h 88.276 v -25.6 C 332.8,22.952 284.248,0 232.166,0 Z"
         inkscape:connector-curvature="0" /></g><g
       id="g34"
       transform="rotate(61.455537,481.67024,242.56541)"
       style="filter:url(#filter6478)"><path
         style="fill:#7f7c79"
         d="m 263.25977,438.28859 c 0,-12.359 -9.71,-22.069 -22.069,-22.069 -12.359,0 -22.069,9.71 -22.069,22.069 0,12.359 9.71,22.069 22.069,22.069 12.358,0 22.069,-9.71 22.069,-22.069"
         id="path30"
         inkscape:connector-curvature="0" /><path
         style="fill:#7f7c79"
         d="m 380.61009,436.13146 c 0,12.359 9.71,22.069 22.069,22.069 12.359,0 22.069,-9.71 22.069,-22.069 0,-12.359 -9.71,-22.069 -22.069,-22.069 -12.359,0 -22.069,9.711 -22.069,22.069"
         id="path32"
         inkscape:connector-curvature="0" /></g><path
       style="opacity:1;vector-effect:none;fill:#3f4654;fill-opacity:1;stroke:none;stroke-width:0.74935639;stroke-linecap:butt;stroke-linejoin:miter;stroke-miterlimit:4;stroke-dasharray:none;stroke-dashoffset:0;stroke-opacity:1"
       d="m 192.07375,658.79279 c -3.81382,-0.47872 -7.49332,-1.99627 -10.67008,-4.4007 -0.96973,-0.73397 -2.74453,-2.48081 -3.60868,-3.55184 -4.07236,-5.04731 -5.82203,-11.51198 -4.78448,-17.67767 1.14745,-6.81882 5.44431,-12.65114 11.71391,-15.89981 2.34892,-1.21712 4.62941,-1.94001 7.45912,-2.36444 1.18802,-0.17819 4.50747,-0.15446 5.78944,0.0414 7.22085,1.10317 13.17711,5.40546 16.48227,11.90539 4.94961,9.7339 2.24952,21.29949 -6.47491,27.7347 -2.75962,2.03552 -6.0624,3.45047 -9.56542,4.09795 -1.3194,0.24387 -4.81024,0.30719 -6.34117,0.11502 z"
       id="path6504"
       inkscape:connector-curvature="0"
       transform="translate(0,-512)" /><path
       style="opacity:1;vector-effect:none;fill:#3f4654;fill-opacity:1;stroke:none;stroke-width:0.74935639;stroke-linecap:butt;stroke-linejoin:miter;stroke-miterlimit:4;stroke-dasharray:none;stroke-dashoffset:0;stroke-opacity:1"
       d="m 272.52855,799.72712 c -10.56094,-0.57107 -19.25893,-8.85982 -20.59138,-19.62254 -0.4229,-3.41587 0.0851,-7.31986 1.37682,-10.58174 0.33215,-0.83873 1.2283,-2.63279 1.62438,-3.25197 0.17196,-0.26881 0.32205,-0.53685 0.33355,-0.59565 0.0115,-0.0588 0.0408,-0.12679 0.0651,-0.15109 0.0243,-0.0243 0.40076,-0.5215 0.83656,-1.10486 2.6352,-3.52746 6.76115,-6.44282 11.0751,-7.82555 0.89195,-0.2859 2.61729,-0.72441 2.84919,-0.72416 0.0729,9e-5 0.55022,-0.0605 1.06066,-0.13454 1.46675,-0.21288 4.42207,-0.18724 5.96622,0.0517 4.86063,0.75228 9.12332,2.93765 12.46333,6.38961 3.43695,3.55215 5.53703,7.88873 6.24406,12.8937 0.17618,1.24711 0.15121,4.46982 -0.0445,5.74524 -0.97196,6.3338 -4.33046,11.6317 -9.58556,15.12084 -3.29652,2.18874 -7.25709,3.57171 -10.74839,3.75317 -0.49071,0.0255 -1.09107,0.0584 -1.33414,0.0732 -0.24307,0.0147 -0.95901,-10e-4 -1.59099,-0.0354 z"
       id="path6506"
       inkscape:connector-curvature="0"
       transform="translate(0,-512)" /></g><g
     inkscape:groupmode="layer"
     id="layer3"
     inkscape:label="Layer 2"
     style="display:inline"
     transform="translate(-151.00269,313.09238)"><g
       transform="matrix(0.96369613,0,0,0.94291692,465.42814,-126.04881)"
       id="g1045"><linearGradient
         id="linearGradient5325"
         gradientUnits="userSpaceOnUse"
         x1="23.715799"
         y1="-152.43069"
         x2="23.715799"
         y2="37.3438"
         gradientTransform="matrix(1.2524,0,0,-1.2524,98.7981,56.0994)"><stop
           offset="0.0056"
           style="stop-color:#ED0000"
           id="stop5319" /><stop
           offset="0.5449"
           style="stop-color:#8D0000"
           id="stop5321" /><stop
           offset="1"
           style="stop-color:#BD0000"
           id="stop5323" /></linearGradient><path
         style="fill:url(#P1_1_);filter:url(#filter6454)"
         inkscape:connector-curvature="0"
         id="P1"
         d="m 2.933,128.167 c 0,69.237 56.33,125.567 125.568,125.567 69.234,0 125.564,-56.33 125.564,-125.567 C 254.065,58.93 197.735,2.6 128.501,2.6 59.263,2.6 2.933,58.93 2.933,128.167 Z" /><linearGradient
         id="linearGradient5334"
         gradientUnits="userSpaceOnUse"
         x1="23.7148"
         y1="-152.41409"
         x2="23.7148"
         y2="37.365601"
         gradientTransform="matrix(1.2524,0,0,-1.2524,98.7981,56.0994)"><stop
           offset="0.0056"
           style="stop-color:#FF4242"
           id="stop5328" /><stop
           offset="0.573"
           style="stop-color:#FF9494"
           id="stop5330" /><stop
           offset="1"
           style="stop-color:#FFDCDC"
           id="stop5332" /></linearGradient><path
         style="fill:url(#P2_1_);filter:url(#filter6448)"
         inkscape:connector-curvature="0"
         id="P2"
         d="m 10.486,128.167 c 0,65.074 52.941,118.014 118.015,118.014 65.072,0 118.01,-52.939 118.01,-118.014 0,-65.073 -52.938,-118.014 -118.01,-118.014 -65.074,0 -118.015,52.941 -118.015,118.014 z" /><linearGradient
         id="linearGradient5343"
         gradientUnits="userSpaceOnUse"
         x1="23.716299"
         y1="-148.5874"
         x2="23.716299"
         y2="33.503399"
         gradientTransform="matrix(1.2524,0,0,-1.2524,98.7981,56.0994)"><stop
           offset="0"
           style="stop-color:#FFFFFF"
           id="stop5337" /><stop
           offset="0.5"
           style="stop-color:#FF0000"
           id="stop5339" /><stop
           offset="1"
           style="stop-color:#FFC9C9"
           id="stop5341" /></linearGradient><path
         style="fill:url(#P3_1_);filter:url(#filter6460)"
         inkscape:connector-curvature="0"
         id="P3"
         d="m 14.472,128.167 c 0,62.88 51.156,114.023 114.029,114.023 62.878,0 114.026,-51.144 114.026,-114.023 C 242.527,65.294 191.379,14.14 128.501,14.14 65.628,14.14 14.472,65.294 14.472,128.167 Z" /><path
         style="opacity:0.8;fill:#ffffff"
         inkscape:connector-curvature="0"
         id="P4"
         enable-background="new    "
         d="m 128.501,28.385 c -57.264,0 -103.857,46.583 -103.857,103.854 0,57.263 46.593,103.845 103.857,103.845 57.266,0 103.854,-46.582 103.854,-103.845 C 232.354,74.968 185.767,28.385 128.501,28.385 Z" /><path
         style="fill:#8d0000;filter:url(#filter6442)"
         inkscape:connector-curvature="0"
         id="P5"
         d="m 24.644,128.167 c 0,57.268 46.593,103.845 103.857,103.845 57.266,0 103.854,-46.577 103.854,-103.845 0,-57.264 -46.588,-103.853 -103.854,-103.853 -57.264,0 -103.857,46.589 -103.857,103.853 z" /><radialGradient
         id="radialGradient5360"
         cx="-13.7617"
         cy="-108.6973"
         r="57.021999"
         gradientTransform="matrix(1.7767,0,0,-1.7767,152.9529,-64.9587)"
         gradientUnits="userSpaceOnUse"><stop
           offset="0.6011"
           style="stop-color:#FFFFFF"
           id="stop5348" /><stop
           offset="0.8764"
           style="stop-color:#EAEAF0"
           id="stop5350" /><stop
           offset="0.9142"
           style="stop-color:#E6E6ED"
           id="stop5352" /><stop
           offset="0.95"
           style="stop-color:#DBDBE5"
           id="stop5354" /><stop
           offset="0.9849"
           style="stop-color:#C8C8D7"
           id="stop5356" /><stop
           offset="1"
           style="stop-color:#BDBDCF"
           id="stop5358" /></radialGradient><path
         style="fill:url(#P6_1_)"
         inkscape:connector-curvature="0"
         id="P6"
         d="m 27.188,128.167 c 0,55.861 45.447,101.308 101.313,101.308 55.862,0 101.313,-45.446 101.313,-101.308 0,-55.862 -45.451,-101.311 -101.313,-101.311 -55.865,0 -101.313,45.449 -101.313,101.311 z" /><path
         style="fill:#771111;filter:url(#filter6412)"
         inkscape:connector-curvature="0"
         id="P7"
         d="m 35.571,124.854 c -1.127,0 -2.042,0.914 -2.042,2.043 v 2.537 c 0,1.128 0.914,2.042 2.042,2.042 h 17.802 c 1.127,0 2.042,-0.914 2.042,-2.042 v -2.537 c 0,-1.129 -0.915,-2.043 -2.042,-2.043 z" /><rect
         style="fill:#a00000;filter:url(#filter6406)"
         id="RE1"
         x="35.570999"
         y="126.897"
         width="17.802"
         height="2.5369999" /><path
         style="fill:#771111;filter:url(#filter6430)"
         inkscape:connector-curvature="0"
         id="P8"
         d="m 203.072,124.854 c -1.128,0 -2.041,0.914 -2.041,2.043 v 2.537 c 0,1.128 0.913,2.042 2.041,2.042 h 17.81 c 1.126,0 2.041,-0.914 2.041,-2.042 v -2.537 c 0,-1.129 -0.915,-2.043 -2.041,-2.043 z" /><rect
         style="fill:#a00000;filter:url(#filter6436)"
         id="RE2"
         x="203.07201"
         y="126.897"
         width="17.809999"
         height="2.5369999" /><path
         style="fill:#771111;filter:url(#filter6418)"
         inkscape:connector-curvature="0"
         id="P9"
         d="m 127.229,200.699 c -1.128,0 -2.042,0.914 -2.042,2.041 v 17.803 c 0,1.127 0.914,2.041 2.042,2.041 h 2.543 c 1.129,0 2.041,-0.914 2.041,-2.041 V 202.74 c 0,-1.127 -0.912,-2.041 -2.041,-2.041 z" /><rect
         style="fill:#a00000;filter:url(#filter6424)"
         id="RE3"
         x="127.229"
         y="202.74001"
         width="2.543"
         height="17.802999" /><path
         style="fill:#771111;filter:url(#filter6394)"
         inkscape:connector-curvature="0"
         id="P10"
         d="m 127.229,33.196 c -1.128,0 -2.042,0.914 -2.042,2.041 V 53.04 c 0,1.127 0.914,2.041 2.042,2.041 h 2.543 c 1.129,0 2.041,-0.914 2.041,-2.041 V 35.237 c 0,-1.127 -0.912,-2.041 -2.041,-2.041 z" /><rect
         style="fill:#a00000;filter:url(#filter6400)"
         id="RE4"
         x="127.229"
         y="35.237"
         width="2.543"
         height="17.802999" /><g
         id="G4"
         transform="rotate(-10.503936,308.65384,85.741052)"><path
           style="fill:#e0e0e0"
           inkscape:connector-curvature="0"
           d="M 116.233,101.013 71.432,23.411 c -2.026,-3.507 -0.824,-7.994 2.683,-10.02 v 0 c 3.509,-2.026 7.996,-0.824 10.021,2.685 v 0 l 44.803,77.602 c 2.025,3.509 0.823,7.994 -2.684,10.019 v 0 c -1.575,0.909 -3.345,1.168 -5.001,0.86 v 0 c -2.038,-0.377 -3.903,-1.61 -5.021,-3.544 z"
           id="path1036" /><path
           style="fill:#bfbfbf"
           inkscape:connector-curvature="0"
           d="M 115.25,97.347 115.249,7.74 c 0.001,-4.051 3.283,-7.336 7.336,-7.335 v 0 c 4.052,-0.001 7.334,3.284 7.336,7.334 v 0 89.608 c -0.002,4.05 -3.284,7.334 -7.336,7.334 v 0 c -0.46,0.001 -0.909,-0.041 -1.344,-0.122 v 0 c -3.408,-0.632 -5.991,-3.623 -5.991,-7.212 z"
           id="path1038" /><path
           style="fill:#808080"
           inkscape:connector-curvature="0"
           d="m 118.918,103.697 c -3.508,-2.025 -4.711,-6.51 -2.685,-10.018 v 0 l 44.803,-77.603 c 2.025,-3.508 6.51,-4.711 10.019,-2.685 v 0 c 3.509,2.026 4.71,6.511 2.685,10.02 v 0 l -44.801,77.602 c -1.597,2.766 -4.722,4.098 -7.691,3.547 v 0 c -0.799,-0.148 -1.587,-0.433 -2.33,-0.863 z"
           id="path1040" /><path
           inkscape:connector-curvature="0"
           d="M 118.92,103.697 59.714,69.514 C 56.205,67.49 55.003,63.004 57.03,59.494 v 0 c 2.025,-3.509 6.511,-4.711 10.02,-2.686 v 0 l 55.538,32.066 73.933,-42.684 c 3.505,-2.026 7.993,-0.824 10.018,2.684 v 0 c 2.024,3.507 0.821,7.994 -2.683,10.02 v 0 l -77.601,44.802 c -1.537,0.888 -3.312,1.174 -5.005,0.86 v 0 c -0.808,-0.149 -1.597,-0.436 -2.33,-0.859 z"
           id="path1042" /></g></g></g></svg>